<svg xmlns="http://www.w3.org/2000/svg" xmlns:xlink="http://www.w3.org/1999/xlink" id="Layer_2_00000047772480060171072990000005299100287435350196_" x="0px" y="0px" viewBox="0 0 500 500" style="enable-background:new 0 0 500 500;" xml:space="preserve"><style type="text/css">	.st0{fill:none;}	.st1{fill:url(#SVGID_1_);}	.st2{fill:#FFFFFF;}</style><g id="Layer_1-2">	<rect class="st0" width="500" height="500"></rect>			<radialGradient id="SVGID_1_" cx="318" cy="319" r="160" gradientTransform="matrix(1 0 0 -1 0 502)" gradientUnits="userSpaceOnUse">		<stop offset="0" style="stop-color:#00D0FF"></stop>		<stop offset="1" style="stop-color:#00D0FF;stop-opacity:0"></stop>	</radialGradient>	<circle class="st1" cx="318" cy="183" r="160"></circle>	<g>		<path class="st2" d="M341.9,65c0.9,0.4,1.8,0.9,2.7,1.2c7.7,3,12.5,10,12.3,17.8c-0.3,8-5.3,14.7-13.2,17.1   c-10.2,3.2-20.5,6.2-30.8,9.2c-4.8,1.4-9.6,2.9-14.5,4.4c-2.4,0.7-5.3,1.8-6.4-1.6c-1.1-3.4,1.7-4.2,4.2-5   c15.1-4.5,30.2-9,45.3-13.6c5.6-1.7,8.8-6.6,8.3-12c-0.5-5.6-4.6-9.9-10.2-10.4c-1.6-0.2-3.3,0-4.8,0.5   c-19.2,5.6-38.5,11.2-57.7,16.8c-0.5,0.1-0.9,0.4-0.9,0.4c2.3,2.6,5.2,5,7,8c1.8,2.9,2.8,6.4,3.7,9.7c0.6,2.2-0.4,4.2-2.8,4.5   c-2.5,0.4-3.7-1.3-3.9-3.6c-1-8.2-6.6-12.1-13.8-14.1c-2-0.5-4.3-0.4-6.3,0.1c-17.7,5-35.4,10.1-53.1,15.3   c-16,4.7-26.2,17.7-27.4,34.4c-0.1,1.4-2,3.1-5.8,5c-0.4-1.8-1-3.4-0.9-5c0.6-18.6,12.8-34.8,30.7-40.4c16.2-5,32.6-9.6,49-14.4   c27.1-7.9,54.2-15.8,81.3-23.7c0.5-0.1,0.9-0.5,1.3-0.7C337.4,65,339.7,65,341.9,65L341.9,65z"></path>		<path class="st2" d="M296.5,471.1v-6.4c1.5,0,2.9,0,4.4,0c19.9,0,39.9,0,59.8,0c21.8,0,35.6-14,35.6-35.9c0-36,0-72,0-107.9   c0-19.5-12.7-35.2-31.5-39.1c-2.9-0.6-6-0.9-9-0.9c-70.4,0-140.9-0.1-211.3,0c-23.9,0-40.8,16.9-40.8,40.8c0,36.1,0,72.2,0,108.3   c0,20.5,14.2,34.7,34.8,34.7c24.1,0,48.2,0,72.3,0c2.4,0,4.1,0.2,5.5,2.6c1.9,3.1,4.6,2.4,6.7,0.4c2.1,0.6,4,1.2,5.5,1.6   c1-1.9,1.7-3.2,2.4-4.5c0.6,1.2,1.3,2.4,2.2,4h4.6c0.2-1.3,0.3-2.5,0.6-4.3c2.6,3.3,4.9,7.4,9,3.2c2.1,0.6,4,1.2,5.6,1.7   c1-1.9,1.6-3.2,2.3-4.5c0.6,1.2,1.3,2.3,2.2,4h4.6c0.1-0.9,0-1.8,0.3-2.6c0.2-0.5,0.8-0.9,1.3-1.4c0.4,0.4,1.1,0.8,1.1,1.2   c-0.1,4.5,3,2.9,5.4,3.2c0.3-1.5,0.5-2.7,0.7-4c3.7-1.6,2.9,1.6,3.4,3.6h5.1c0.3-1.4,0.5-2.7,1.1-5.3c2.5,5.1,5.2,8.1,9.7,3.6   c0.9,4,0.6,4.3-3.5,4.3c-38.4,0-76.7,0-115.1,0c-11.2,0-22.5,0-33.7,0c-23.3-0.1-40.8-17.4-40.8-40.7c-0.1-36.6-0.1-73.2,0-109.8   c0.1-22.5,13.8-40.1,35.5-45.5c2.6-0.7,3.4-1.8,3.3-4.4c-0.2-4.3-0.1-8.6,0-12.9c0.2-9.9,6.4-16,16.2-16c66.4,0,132.8,0,199.2,0   c9.6,0,15.8,6.4,15.9,15.9c0,5.5,0,11.1,0,15.9c6.1,3.1,12,5.4,17.1,8.9c12.5,8.8,19,21.2,19.1,36.4c0.2,37.9,0.2,75.7,0,113.6   c-0.1,20.2-17.1,37.8-37.6,38.3c-22.6,0.5-45.2,0.1-67.8,0.1C297.5,471.5,297.3,471.4,296.5,471.1L296.5,471.1z M142.6,273.9   h217.5c0-4.7,0-9.1,0-13.5c0-8.6-2.8-11.4-11.3-11.4c-65.1,0-130.2,0-195.3,0c-1.8,0-3.6,0.1-5.2,0.6c-3.2,0.9-5.4,3.1-5.6,6.4   C142.4,261.9,142.6,267.8,142.6,273.9L142.6,273.9z"></path>		<path class="st2" d="M187.7,375.7c10.4,29.1,39.7,40.5,70.8,32.9c-2.9-1.6-5.5-2.9-8-4.4c-2-1.2-4.2-2.5-5.7-4.3   c-0.8-1-0.9-3.4-0.3-4.6c0.4-0.8,2.8-0.8,4.2-0.6c1.1,0.2,2.1,1.4,3.1,2.1c18.9,13.2,41.5,9.9,58.8-5.8   c-5.5,0.8-10.8,1.5-16.1,2.2c-2.5,0.3-5.2,0.3-5.5-2.9c-0.3-3.3,2.3-3.7,4.9-3.9c17.9-1.5,34.4-6.7,48.5-18.1   c3.5-2.8,6.4-6.2,9.8-9.6c-14.4-9.7-29.4-13.7-45.6-11.5c-7.7,1-15.1,3.7-22.7,5.6c-1,0.2-2,1.1-2.8,1c-1.6-0.3-3.2-1.2-4.7-1.8   c0.8-1.5,1.2-3.8,2.4-4.3c5.1-2.2,10.4-3.9,15.9-6.6c-3-0.9-5.9-2.2-8.9-2.7c-9.1-1.3-17.3,1.8-24.6,6.8c-6.3,4.3-12,9.5-18,14.4   c-0.9,0.7-1.6,1.6-2.4,2.4c-1.7,1.6-3.9,2.1-5.2,0.1c-0.7-1.1-0.5-4,0.4-4.8c5.7-5.3,11.7-10.4,17.6-15.4c1-0.9,2.2-1.5,4-2.8   c-10.4-2.1-19.8-2.5-29.3-0.9c-1.2,0.2-2.6,0.8-3.7,0.5c-1.5-0.5-2.7-1.7-4-2.6c0.9-1.3,1.6-3.2,2.9-3.8c1.7-0.9,3.9-0.9,5.9-1.1   c11.9-1.7,23.6-0.3,35.3,2.4c1.7,0.4,3.8,0.4,5.5-0.2c11.9-3.7,22.9-2.3,32.9,5.5c1.3,1,3.5,1.4,5.2,1.3   c16.8-1.1,32.3,2.7,46.4,12.1c5.2,3.5,5.8,5.9,2.1,11.2c-5.8,8.3-13.7,14.1-22.5,18.6c-5,2.5-9.4,5.6-13.4,9.6   c-10.2,10.1-21.9,17.7-36.5,20c-12.4,1.9-24.7,4.6-37.2,6c-31.9,3.4-56.6-12.4-67.6-42.4c-0.9-2.4-2.2-3.9-4.5-5.1   c-4.4-2.2-8.6-4.8-12.8-7.3c-2.3-1.4-5.1-3-3-6.2c1.9-2.9,4.4-1.1,6.6,0.3c4.5,2.8,9.1,5.4,13,7.7c5.3-6.1,9.7-12.2,15.1-17.4   c4.1-3.8,9.2-6.5,14-9.6c2.1-1.4,4.5-1.8,5.9,0.8c1.5,2.7-0.5,4.2-2.7,5.3c-9.9,5-18,12-23.6,21.7c-0.2,0.4-0.5,0.9-0.7,1.4   c-0.1,0.2,0,0.5-0.1,1.7c7.6,2.1,15.3,4.9,23.3,6.5c32.4,6.6,64,2.3,94.9-8.5c0.8-0.3,1.7-0.6,2.5-0.9c2.2-0.8,4.5-1.1,5.4,1.5   c1,2.5-0.6,4-2.9,4.8c-2.6,0.9-5.2,1.9-7.8,2.8c-25.4,8.2-51.4,12.3-78,9.2c-11.2-1.3-22.1-4.6-33.2-7   C190,376.4,189,376,187.7,375.7L187.7,375.7z"></path>		<path class="st2" d="M173.2,182.5c2.1-0.4,3.9-0.7,6.4-1.1c0,1.5,0,2.8,0,4.1c0.2,6,4,10,9.6,10c5.5,0,9.5-4.1,9.6-10.1   c0.1-9.8-0.1-19.7,0.1-29.5c0.1-6.3,4-11.1,9.9-12.8c5.7-1.6,11.8,0.5,14.7,5.7c1.4,2.5,2.2,5.7,2.3,8.6   c0.2,15.6,0.1,31.3,0.1,46.9c0,1.4,0,2.8,0.1,4.2c0.5,3.8,3.6,6.7,7.3,7c3.4,0.3,7.1-2.1,8.1-5.6c0.4-1.5,0.5-3.2,0.5-4.9   c0-19.4,0-38.9,0.1-58.3c0-6.9,5.2-12.1,12.2-12.5c6.4-0.4,12.1,4.4,12.9,11.3c0.3,2.4,0.1,4.8,0.4,7.2c0.4,3.5,2.6,5.9,5.9,5.8   c2.3,0,4.9-1.6,6.6-3.2c1.1-1.1,1.2-3.5,1.2-5.3c0.1-7.9,0.1-15.9,0.1-23.8c0-1-0.3-2.2,0.1-3c0.8-1.3,2.1-2.4,3.1-3.6   c1.2,1.1,3.3,2.2,3.3,3.3c0.2,10.5,0.5,21-0.2,31.4c-0.5,6.9-7.1,11.7-13.9,11.4c-7.1-0.3-12.7-5.6-13.3-13c-0.2-2,0-4-0.2-6.1   c-0.3-3.2-2.2-5-5.3-5.3c-3.1-0.3-5.6,1.8-6.1,5c-0.2,1.2-0.1,2.5-0.1,3.8c0,19.1,0.1,38.1,0,57.2c0,8.2-5.6,14.2-13.5,15.2   c-6.9,0.8-14-4.1-15.7-11c-0.5-2.3-0.6-4.8-0.6-7.1c-0.1-14.9,0-29.8,0-44.7c0-0.9,0-1.8,0-2.6c-0.2-4.4-2.8-7.3-6.6-7.4   c-4-0.1-6.8,2.8-6.9,7.4c-0.1,6.1,0,12.1,0,18.2c0,3.8,0.1,7.6,0,11.4c-0.3,9.8-8.5,16.9-18.2,15.8   C177.6,201.1,171.4,192.4,173.2,182.5L173.2,182.5z"></path>		<path class="st2" d="M385.8,426.4c-0.4,15.8-14.6,29.7-30.5,29.9c-2.3,0-4.1-0.6-4.4-3.1c-0.3-2.8,1.7-3.6,4.1-3.8   c8.8-0.5,15.8-4.4,20.2-12c1.9-3.4,2.8-7.5,3.6-11.4c0.5-2.4,0.7-4.8,3.7-4.7C385.6,421.5,386,423.9,385.8,426.4L385.8,426.4z"></path>		<path class="st2" d="M184.5,165c0-4.1,0-8.3,0-12.4c0-2.5,1-4.3,3.6-4.2c2.6,0.1,3.2,2,3.2,4.3c0,8.3,0,16.6,0,24.9   c0,2.5-0.8,4.5-3.4,4.4c-2.6-0.1-3.4-2-3.4-4.5C184.5,173.3,184.4,169.1,184.5,165C184.4,165,184.4,165,184.5,165L184.5,165z"></path>		<path class="st2" d="M270.9,188.6c0,2.9,0,5.8,0,8.7c0,2.4-1,4.3-3.4,3.9c-1.3-0.2-3.2-2.3-3.2-3.6c-0.4-6-0.2-12.1-0.1-18.1   c0-2.3,1.2-4.3,3.6-3.7c1.3,0.3,2.8,2.4,3,3.8C271.2,182.5,270.9,185.6,270.9,188.6L270.9,188.6z"></path>		<path class="st2" d="M279,182.6c0-1.6-0.4-3.4,0.1-4.8c0.5-1.3,2-2.9,3-2.9c1.1,0,3.2,1.6,3.3,2.6c0.4,3.6,0.4,7.3,0,10.9   c-0.1,1.1-2.2,2.7-3.4,2.6c-1.1-0.1-2.6-1.8-3-3.1C278.6,186.3,279,184.4,279,182.6C279,182.7,279,182.7,279,182.6L279,182.6z"></path>		<path class="st2" d="M184.5,216.4c0-1.2-0.4-2.7,0.1-3.7c0.8-1.4,2.2-2.5,3.4-3.7c1.1,1.1,2.9,2.2,3.1,3.5c0.5,2.7,0.5,5.6,0,8.2   c-0.2,1.3-2.1,3.1-3.3,3c-1.1,0-2.6-1.9-3.2-3.2C184.1,219.4,184.5,217.8,184.5,216.4C184.5,216.4,184.5,216.4,184.5,216.4   L184.5,216.4z"></path>		<path class="st2" d="M175.5,156.6c-0.3,4.6,0.8,8.6-1.3,13.1C171.8,164.9,172.3,159.5,175.5,156.6z"></path>		<path class="st2" d="M254.1,258.6c-1,2.1-1.9,4-3.1,6.5c-0.9,0-2.2,0-3.6,0c-28.2,0-56.5,0-84.8,0c-0.8,0-1.5,0-2.3,0   c-2.3,0-4.1-0.9-4-3.5c0.1-2.5,1.9-3.3,4.2-3.3c31,0,62.1,0.1,93.1,0.1C253.8,258.4,253.9,258.5,254.1,258.6L254.1,258.6z"></path>		<path class="st2" d="M327.8,258.3c4.8,0,9.5,0.1,14.3,0c2.6,0,4.8,0.7,4.8,3.5c0,2.7-2.1,3.3-4.5,3.3c-9.9,0-19.9,0-29.8,0   c-2.5,0-4.5-0.8-4.4-3.4c0.1-2.6,2.1-3.4,4.5-3.4C317.8,258.3,322.8,258.3,327.8,258.3L327.8,258.3z"></path>		<path class="st2" d="M277.6,258.3c4.4,0,8.8,0,13.2,0c2.5,0,4.4,0.8,4.3,3.6c-0.1,2.5-2,3.2-4.2,3.2c-8.7,0-17.4-0.1-26.1,0   c-2.6,0-3.2-1.1-3.1-3.4c0.1-2.1,0.4-3.6,3.1-3.5C269,258.4,273.3,258.3,277.6,258.3z"></path>	</g></g></svg>