<svg xmlns="http://www.w3.org/2000/svg" xmlns:xlink="http://www.w3.org/1999/xlink" id="Layer_2_00000183947419026255303370000015608558728598011781_" x="0px" y="0px" viewBox="0 0 500 500" style="enable-background:new 0 0 500 500;" xml:space="preserve"><style type="text/css">	.st0{fill:none;}	.st1{fill:url(#SVGID_1_);}	.st2{fill:#FFFFFF;}</style><g id="Layer_1-2">	<rect class="st0" width="500" height="500"></rect>			<radialGradient id="SVGID_1_" cx="318" cy="319" r="160" gradientTransform="matrix(1 0 0 -1 0 502)" gradientUnits="userSpaceOnUse">		<stop offset="0" style="stop-color:#00D0FF"></stop>		<stop offset="1" style="stop-color:#00D0FF;stop-opacity:0"></stop>	</radialGradient>	<circle class="st1" cx="318" cy="183" r="160"></circle>	<g>		<path class="st2" d="M203.7,208.5c-0.1,0.7-0.1,1.4-0.1,2v-2H203.7z"></path>		<path class="st2" d="M399.2,287.7c-43.8-44.1-90.5-69.7-108.1-59.9c-1,0.6-2,1.2-2.8,2.1l-19.6,19.5l-2.5,2.4   c0.5-0.4,0.9-0.8,1.4-1.2c-7.1,9.1-2,28.7,12,52.3c-8.7-1-18-1.5-27.8-1.5c-43.7,0-79.2,11-81.1,24.7c-0.1-0.4-0.1-0.8-0.1-1.2   v7.1c-20.1,6.5-33,15.2-34.4,24.9c-0.1-0.5-0.1-1.1-0.1-1.6v65.6c0,1.2,0.2,2.3,0.5,3.5c5.5,19.4,56.5,34.5,118.7,34.5   s113.2-15.2,118.7-34.5c0.3-1.1,0.5-2.3,0.5-3.5v-19.3c27,18.2,50.2,25.7,60.6,18.1c-0.3,0.5-0.7,0.9-1.1,1.2l2.3-2.2l0.3-0.3   l19.5-19.4c0.8-0.8,1.5-1.7,2.1-2.8C468.2,378.8,443,331.9,399.2,287.7L399.2,287.7z M251.9,303.7c10.6,0,20.4,0.7,29.3,1.8   c1.5,0.2,3.1,0.4,4.5,0.7c27.6,4.1,45,13,45,21.1c0,0.7-0.1,1.4-0.4,2c-0.3,1.1-1,2.1-1.8,3.2c-2.8,3.4-8.3,6.6-15.8,9.4   c-1.1,0.4-2.3,0.8-3.5,1.2c-4.9,1.6-10.6,3-16.9,4.2c-2.9,0.5-5.9,1-8.9,1.5c-0.2,0-0.3,0.1-0.5,0.1c-3.2,0.5-6.6,0.8-10,1.1   c-2.8,0.3-5.6,0.5-8.5,0.6c-0.5,0-1,0.1-1.5,0.1c-1.4,0.1-2.9,0.1-4.3,0.1c-2.2,0.1-4.4,0.1-6.7,0.1s-4.5,0-6.7-0.1   c-1.4,0-2.9-0.1-4.3-0.1c-0.5,0-1,0-1.5-0.1c-2.9-0.1-5.7-0.3-8.5-0.6c-3.4-0.3-6.8-0.6-10-1.1c-0.2,0-0.4,0-0.6-0.1   c-3.1-0.5-6-0.9-8.9-1.5c-16.5-3.1-28.9-7.9-34.7-13.3c-1.1-1-1.9-2-2.5-3c-0.7-1.2-1.1-2.5-1.1-3.7   C173.2,316.1,205.5,303.7,251.9,303.7L251.9,303.7z M170.8,335.7v13.1c0,0.8,0.1,1.6,0.4,2.4c3.7,13.2,38.5,23.5,80.8,23.5h1.7   v-2.4h-1.7c-44.7,0-75.6-11.3-78.6-21.8c-0.2-0.6-0.2-1.2-0.2-1.7V335l0.3-0.1c6.5,6.2,19.3,11.3,37.2,14.6   c1.1,0.2,2.2,0.4,3.4,0.6c0.1,0,0.2,0,0.3,0c2.2,0.4,4.4,0.7,6.7,1c1.2,0.1,2.4,0.3,3.6,0.4c1.9,0.2,3.9,0.5,5.9,0.6   c1,0.1,2.1,0.2,3.1,0.2c6,0.5,12.2,0.7,18.4,0.7s12.4-0.2,18.4-0.7c1-0.1,2.1-0.1,3.1-0.2c2-0.1,3.9-0.4,5.9-0.6   c1.2-0.1,2.4-0.3,3.6-0.4c2.3-0.3,4.5-0.6,6.7-1c0.1,0,0.2,0,0.3,0c1.1-0.2,2.3-0.4,3.4-0.6c6.7-1.2,12.6-2.7,17.8-4.4   c1.2-0.4,2.4-0.8,3.5-1.2c7.2-2.7,12.6-5.8,16.2-9.2v14.2c0,0.5-0.1,1.1-0.2,1.7c-0.5,1.9-2,3.9-4.3,5.7c-0.8,0.7-1.8,1.4-2.8,2   c-4.3,2.7-10.4,5.3-17.9,7.5v2.5c8.1-2.3,14.9-5.1,19.6-8.2c1-0.7,2-1.4,2.8-2.1c2.6-2.1,4.2-4.4,4.9-6.8c0.2-0.8,0.4-1.5,0.4-2.4   v-15.2c23.9,6.8,38,16.2,38,25.1c0,6.9-7.9,13.7-21.5,19.5c-1.1,0.5-2.4,1-3.6,1.5c-8.6,3.3-19.2,6.2-31.2,8.5   c-1.9,0.4-3.9,0.7-5.8,1c-2.2,0.4-4.4,0.7-6.7,1c-0.2,0-0.4,0.1-0.5,0.1c-4.3,0.6-8.7,1.1-13.2,1.5c-3.3,0.3-6.6,0.6-10,0.8   c-2.5,0.2-5.1,0.3-7.7,0.4c-5.1,0.2-10.3,0.3-15.5,0.3s-10.4-0.1-15.5-0.3c-2.6-0.1-5.1-0.2-7.7-0.4c-3.4-0.2-6.7-0.5-10-0.8   c-4.5-0.4-8.9-0.9-13.2-1.5c-0.2,0-0.4,0-0.6-0.1c-2.2-0.3-4.5-0.7-6.7-1c-2-0.4-3.9-0.7-5.8-1c-34.2-6.4-56.3-17.9-56.3-29.4   C139.7,350.8,151.1,342.3,170.8,335.7L170.8,335.7z M371.1,420.9c0,0.8-0.1,1.7-0.4,2.5c-4.4,15.4-49.7,32-115.4,32   s-111-16.6-115.4-32c-0.2-0.9-0.4-1.7-0.4-2.6v-51.3c9.5,9.3,28.4,16.9,55,21.9c2.4,0.5,4.9,0.9,7.4,1.2c2.3,0.4,4.6,0.7,7,1   c4.8,0.7,9.7,1.2,14.7,1.6c1.3,0.1,2.6,0.2,3.8,0.3c1.4,0.1,2.7,0.2,4.1,0.3c3.2,0.2,6.4,0.4,9.6,0.5c4.7,0.2,9.4,0.3,14.1,0.3   c4.7,0,9.5-0.1,14.1-0.3c3.2-0.1,6.5-0.3,9.6-0.5c1.4-0.1,2.8-0.2,4.1-0.3c1.3-0.1,2.6-0.2,3.8-0.3c5-0.5,9.9-1,14.7-1.6   c2.4-0.3,4.7-0.7,7-1c2.5-0.4,4.9-0.8,7.4-1.2c13-2.4,24.1-5.5,33.2-9c1.2-0.5,2.5-0.9,3.6-1.5c7.9-3.4,14-7.2,18.2-11.3   L371.1,420.9L371.1,420.9z M434.1,416.1c-7.7,7.7-30.8,0.9-59.6-18.7v-42.1c0,0.5,0,1.1-0.1,1.6c-1.6-10.8-17.3-20.4-41.3-26.9   v-5.1c0,0.4,0,0.8-0.1,1.2c-1.4-10.1-21.1-18.8-48.8-22.6c-15.3-25.1-20-44.7-13-51.7c8.1-8.1,31.9-0.6,60.5,19.2   c1.9,1.3,3.8,2.7,5.7,4c5.7,4.2,11.5,8.8,17.2,13.6c1.9,1.6,3.8,3.3,5.7,4.9c1.9,1.7,3.8,3.4,5.7,5.2c3.7,3.5,7.5,7,11.2,10.8   c3.7,3.8,7.3,7.5,10.7,11.3c1.8,1.9,3.5,3.8,5.1,5.7c1.7,1.9,3.4,3.8,4.9,5.8c1.6,1.9,3.2,3.8,4.7,5.8c0,0,0,0,0,0   c1.5,1.9,3,3.8,4.5,5.7c1.5,1.9,2.9,3.9,4.2,5.8c1.4,1.9,2.8,3.8,4,5.7C435,384.2,442.3,407.9,434.1,416.1L434.1,416.1z    M455.3,394.6c-0.5,0.8-1,1.5-1.5,2l-11.9,11.8c-0.1-13.3-8-32.1-23.2-54.5c-1.9-2.8-3.8-5.5-5.9-8.3c-0.2-0.4-0.5-0.8-0.9-1.2   c-1.2-1.6-2.5-3.3-3.8-4.9c-8.4-10.9-18.1-21.9-28.5-32.3c-5.7-5.7-11.5-11.3-17.4-16.5c-5.7-5.1-11.5-9.9-17.3-14.3   c0-0.1-0.1-0.1-0.1-0.1c-1.9-1.4-3.7-2.8-5.5-4.1c-0.1-0.1-0.2-0.2-0.3-0.2c-1.9-1.5-3.9-2.8-5.8-4.1   c-22.2-15.4-41-23.4-54.2-23.6l11.9-11.8c0.6-0.6,1.3-1.1,2-1.5c14-7.8,57.7,12.7,104,59.3C443,336.8,463.2,380.7,455.3,394.6   L455.3,394.6z"></path>		<path class="st2" d="M246.8,313c-35.7,0-64.8-29-64.8-64.8V117h5.2v131.2c0,32.8,26.7,59.6,59.6,59.6s59.6-26.7,59.6-59.6V117h5.2   v131.2C311.5,283.9,282.5,313,246.8,313L246.8,313z"></path>		<path class="st2" d="M246.8,186.1c-22.9,0-41.4,18.6-41.4,41.4v62.2c0,22.9,18.6,41.4,41.4,41.4s41.4-18.5,41.4-41.4v-62.2   C288.2,204.6,269.7,186.1,246.8,186.1L246.8,186.1z M212.7,281.6l1.3-36.8l3.4,58.7C214,296.7,212.4,289.2,212.7,281.6   L212.7,281.6z M227.7,317.9c-3.3-2.6-5.2-6.6-5.1-10.8v-0.2l11.7,16.2L227.7,317.9z"></path>		<g>			<path class="st2" d="M120.1,264.3l2.3-47.2l2.3,47.2c0.4,8.7,7.4,15.7,16.1,16.1l47.2,2.3l-47.2,2.3c-8.7,0.4-15.7,7.4-16.1,16.1    l-2.3,47.2l-2.3-47.2c-0.4-8.7-7.4-15.7-16.1-16.1l-47.2-2.3l47.2-2.3C112.7,280,119.7,273,120.1,264.3L120.1,264.3z"></path>			<path class="st2" d="M59.5,311.5l0.7-14.9l0.7,14.9c0.1,2.8,2.3,5,5.1,5.1l14.9,0.7L66.1,318c-2.8,0.1-5,2.3-5.1,5.1L60.3,338    l-0.7-14.9c-0.1-2.8-2.3-5-5.1-5.1l-14.9-0.7l14.9-0.7C57.2,316.4,59.4,314.2,59.5,311.5z"></path>			<path class="st2" d="M342.9,283.1l0.5-10.7l0.5,10.7c0.4,7,5.9,12.6,12.9,12.9l10.7,0.5l-10.7,0.5c-7,0.4-12.6,5.9-12.9,12.9    l-0.5,10.7l-0.5-10.7c-0.4-7-5.9-12.6-12.9-12.9l-10.7-0.5l10.7-0.5C337,295.7,342.6,290.1,342.9,283.1z"></path>			<path class="st2" d="M166.8,221l0.5-10.7l0.5,10.7c0.4,7,5.9,12.6,12.9,12.9l10.7,0.5l-10.7,0.5c-7,0.4-12.6,5.9-12.9,12.9    l-0.5,10.7l-0.5-10.7c-0.4-7-5.9-12.6-12.9-12.9l-10.7-0.5l10.7-0.5C160.9,233.5,166.5,228,166.8,221z"></path>			<path class="st2" d="M381.1,338.8l0.4-7.7l0.4,7.7c0.2,5,4.2,9,9.2,9.2l7.7,0.4l-7.7,0.4c-5,0.2-9,4.2-9.2,9.2l-0.4,7.7l-0.4-7.7    c-0.2-5-4.2-9-9.2-9.2l-7.7-0.4l7.7-0.4C376.8,347.8,380.8,343.8,381.1,338.8z"></path>			<path class="st2" d="M304.7,346.5l0.8-15.3l0.8,15.3c0.5,10,8.5,18,18.4,18.4l15.3,0.8l-15.3,0.8c-10,0.5-18,8.5-18.4,18.4    l-0.8,15.3l-0.8-15.3c-0.5-10-8.5-18-18.4-18.4l-15.3-0.8l15.3-0.8C296.3,364.4,304.2,356.4,304.7,346.5z"></path>		</g>	</g></g></svg>