<svg xmlns="http://www.w3.org/2000/svg" xmlns:xlink="http://www.w3.org/1999/xlink" id="Layer_2_00000102524951754723854670000006526796553378624952_" x="0px" y="0px" viewBox="0 0 500 500" style="enable-background:new 0 0 500 500;" xml:space="preserve"><style type="text/css">	.st0{fill:none;}	.st1{fill:url(#SVGID_1_);}	.st2{fill:#FFFFFF;}</style><g id="Layer_1-2">	<rect class="st0" width="500" height="500"></rect>			<radialGradient id="SVGID_1_" cx="318" cy="319" r="160" gradientTransform="matrix(1 0 0 -1 0 502)" gradientUnits="userSpaceOnUse">		<stop offset="0" style="stop-color:#00D0FF"></stop>		<stop offset="1" style="stop-color:#00D0FF;stop-opacity:0"></stop>	</radialGradient>	<circle class="st1" cx="318" cy="183" r="160"></circle>	<g>		<path class="st2" d="M54.7,330.5c-9.6,1.8-19.6,3.8-29.6,5.5c-2.6,0.5-6.6,2.6-7.5-1.6c-1-4.7,3.6-4,6.4-4.5   c9.7-1.9,19.4-3.8,29.1-5.5c2.7-0.5,3.9-1.7,4.4-4.4c4.8-25.5,12.9-49.9,25.2-72.8c0.3-0.5,0.4-1.1,0.8-2   c-1.4-0.1-2.4-0.2-3.4-0.2c-19,0.3-38,0.5-57.1,0.8c-1.1,0-2.3,0.3-3.2-0.2c-1.1-0.6-2.6-1.9-2.5-2.6c0.2-1.2,1.5-2.5,2.6-3.1   c1.1-0.6,2.7-0.3,4.1-0.3c19.8-0.3,39.6-0.7,59.4-0.9c3.4,0,5.5-1.5,7.6-4.1c3.6-4.4,7.4-8.8,12-12.1c9.2-6.7,17.8-4.1,22.6,6.3   c1.1,2.4,1.8,4.9,3,7.9c9.9,0,20-0.3,30,0.1c15.3,0.5,28.9,6.6,41.6,14.3c14.5,8.8,29.2,17.6,42.4,28.2   c16.3,13.1,33.6,16.1,53.4,11.3c18.1-4.4,36.5-8,54.8-11.9c5.4-1.2,8.8,2,7.2,7.4c-0.8,2.5-2.9,5.6-5.1,6.6   c-3.7,1.7-5.9,4.4-8.4,7.2c-4.1,4.6-9.3,8.3-13.9,12.3c0.6,0,2,0.2,3.4,0.2c23-0.3,46.1-0.7,69.1-1c5.9-0.1,7.8,2.6,5.8,8.1   c-1.6,4.2-4.6,6.8-9.1,7.8c-1.3,0.3-2.9,1.1-3.6,2.2c-5.3,8.4-13.2,12.2-22.6,12.5c-13.7,0.5-27.5,0.1-41.2,0.1   c-0.1,0.5-0.2,1-0.3,1.5c1,0.7,2,1.5,3,2.2c19.3,12.8,41.1,19.6,62.9,26.8c4.8,1.6,9.7,3.2,14.5,4.8c3.8,1.2,4.2,3.7,3,6.9   c-1.7,4.4-6.7,7.2-12,7c-1.5-0.1-3.4-0.4-4.4,0.3c-10.4,7.5-21.6,5.8-32.4,2.1c-10.2-3.4-20-8.3-30-12.2   c-12.2-4.8-24.4-9.3-36.7-13.9c-0.2,0.4-0.5,0.8-0.7,1.2c6.2,7,12,14.5,18.6,21c21.1,20.7,42.5,41,63.8,61.5   c1.6,1.6,4,4.9,3.4,5.7c-1.5,2.4-4.2,5-6.7,5.4c-3.4,0.5-7.8-0.1-10.3-2c-4.3-3.4-8.6-4.9-13.9-5.8c-12.6-2.2-24.5-6.9-34.4-15.2   c-9.2-7.8-17.9-16.2-26.5-24.6c-14.7-14.4-28.9-29.2-43.7-43.5c-3.8-3.7-8.8-6.2-13.6-8.7c-4-2.1-7.6-0.9-10.6,2.8   c-5.5,6.8-7.5,14.6-4,22.5c3.7,8.4,8.9,16.2,13.1,24.4c3.9,7.6,8.3,15.2,11,23.3c3.9,11.8,2.8,23.8-1.8,35.4   c-0.6,1.4-0.5,3-1.1,4.4c-1.1,2.5-2,5.3-3.8,7.1c-4.2,4.2-6.9,3.6-9.3-1.9c-17.6-41-43.7-76.7-70.2-112.1   c-8.8-11.7-15.4-24.2-16.3-39.2c-0.3-5.2-3.4-8.5-8.4-9.9c-1.6-0.5-3.3-0.8-5-0.9c-9-0.5-8.9-0.5-11.7,8   c-6.6,19.7-14.2,39-27.6,55.2c-3.1,3.7-7,7.1-11.1,9.7c-7.9,5-15.9,2.9-19.7-5.6c-2.7-6.2-4.7-13.2-5-20   C53.5,354.4,54.4,342.8,54.7,330.5L54.7,330.5z M143.6,317.2c-0.4-7.5-0.9-13.6-1-19.8c0-1.8,0.7-4.8,1.8-5.2c3-1.1,4.1,1.6,4.2,4   c0.4,6.8,1.3,13.6,0.5,20.3c-2.1,17.9,3.8,33,14,47.2c18.7,26.1,39.2,51,54.4,79.5c0.5,1,2.3,1.9,3.5,2c6.2,0.2,10.5,2.9,13,8.7   c1.4,3.2,3.1,6.2,5,10c4.1-15.6,1.4-29.1-6.2-41.9c-5.4-9-10.9-17.9-16-27.1c-3.3-6-5.3-12.8-3.4-19.7   c5.1-18.3,15.5-26.4,32.1-14.8c5.6,3.9,11,8.1,15.8,12.9c16.4,16.4,32.5,33.1,48.7,49.7c11,11.2,23.7,19.8,39,24.1   c1,0.3,2.1,0.4,4.2,0.8c-5.1-5.6-5.6-10.9-3.3-15c-12.5-13.1-25.1-25.1-36.4-38.3c-12.9-15-24.7-30.9-36.9-46.4   c-1.5-1.9-2.8-4.5,0.1-5.8c1.1-0.5,3.9,1,5,2.4c3,3.7,5.4,7.9,8.2,11.8c0.9,1.3,2.4,2.4,3.8,3c22.6,8.7,45.2,17.3,67.9,25.8   c5.2,1.9,10.6,3.6,16,4.4c4.3,0.6,8.8-0.2,13.2-0.5c0-0.5,0-1-0.1-1.5c-3-1-6.2-2-9.1-3.2c-4.4-1.8-7.8-4.9-7.8-9.9   c0-3.3-1.5-4.1-4.1-5c-14.4-5-28.1-11.4-40.6-20.1c-19.7-13.6-39-27.8-58.5-41.6c-23.6-16.7-46.9-33.8-70.9-49.9   c-16.8-11.3-35.6-16.9-56.1-15.7c-11.4,0.7-22.9,0.9-34.3,0.9c-4.3,0-6.7,1.6-8.9,5c-9.8,15.6-16,32.6-20.9,50.3   c-1.9,6.8-3.2,13.7-4.9,20.9c12.7-2.1,24.5-4.3,36.4-5.9C121.7,312.3,132.4,310,143.6,317.2L143.6,317.2z M121.8,237.1   c-1.7-5.5-2.8-10.7-7.6-11.4c-3.3-0.5-7.9,1.6-10.5,4.1c-4.7,4.6-9,9.9-12.4,15.5c-14.7,24.2-23,50.8-28.2,78.4   c-3.1,16.6-4.9,33.4-1.9,50.2c1,5.3,1.8,11.4,7.7,13.3c6.3,2,10.8-2.7,13.9-7.1c6.5-9.3,12.4-19.1,18.2-28.9   c2.1-3.5,3.3-7.4,4.9-11.2c-2.2,2.3-3.3,5.2-5,7.7c-4.2,6.4-8,13.3-13.2,18.8c-8.2,8.7-17.1,6.3-19.7-5.3   c-1.7-7.6-2.1-15.6-1.6-23.4c1.3-22.8,7.2-44.8,15.4-66c4.7-12,9.9-23.7,18.7-33.4C107.8,230.6,112.8,230.1,121.8,237.1   L121.8,237.1z M292.9,316.9c8.3,5.9,16.5,11.9,24.9,17.6c2,1.4,4.8,2.1,7.2,2.1c9.3,0.1,18.5,0,27.8-0.2   c7.4-0.2,14.8-0.2,22.2-0.9c5.3-0.5,10.1-2.5,14.1-7.4c-4.1,0-7.1,0.1-10.2,0c-4.7-0.2-9.1-1.7-11.1-6.2c-1.4-3.1-3.2-3.4-6-3.4   C339,318.6,316.1,320.2,292.9,316.9L292.9,316.9z M105.7,320.6c-10.5,2-19.7,3.6-28.9,5.5c-1.2,0.2-3.1,1.6-3.1,2.5   c-0.1,10.4-0.6,20.9,0.4,31.3c0.6,6.3,4.9,7.2,9.3,2.5C94.3,350.8,99.9,336.3,105.7,320.6z M273.9,300.5   c23.3,16.3,49.6,11.3,62.8-2.1c-6.1,0.7-9.2-3-11.2-7.1C307.8,294.4,290.7,297.5,273.9,300.5z M380.6,373.6   c1.2,6.1,22,13,27.9,9.2C399,379.7,390,376.7,380.6,373.6z M355.8,436.2c-0.8,6.7,15.2,21.2,21.3,19.6   C370,449.3,363.1,442.9,355.8,436.2z M373.2,318c4.3,5.2,25.9,4.6,28.4,0H373.2z M234.3,476.8c2.2-6.9-7.1-24.3-12.1-24.2   C226.3,460.8,230.3,468.8,234.3,476.8z M350.9,285.1c-6.2,1.4-12.4,2.8-18.9,4.2C334.9,292.8,344.5,290.9,350.9,285.1z"></path>		<path class="st2" d="M397.2,125.8c-0.3,0-2.1,0.3-3.3-0.4c-5.6-2.9-8.1,0.3-10.8,4.5c-3.5,5.6-7.4,11.1-11.4,16.3   c-13.7,17.7-24.7,36.8-32.3,58c-3.1,8.5-8.7,11.1-16.7,8.8c-9.4-2.7-16-11.2-14.5-18.9c0.4-1.9,1.5-3.7,2.5-5.3   c0.6-1,1.6-1.9,2.6-2.6c24.6-19,40.2-45.4,57.7-70.3c0.7-1,0.4-3.3-0.2-4.7c-1.2-2.8-3.2-5.3-4.4-8.1c-2.1-4.9-1.6-9.6,1.4-14.1   c14.6-21.8,29.3-43.7,43.8-65.5c4.2-6.3,10-8,17-6.4c13.3,3.1,23.5,10.6,30.7,22.1c3.7,5.9,3.2,11.7-0.9,17.2   c-15.3,20.8-30.5,41.7-45.8,62.4C409,123.8,404.3,126.1,397.2,125.8L397.2,125.8z M412.4,108.6c14.1-19.3,27.9-38.1,41.6-56.9   c2.4-3.3,1.5-6.4-0.5-9.5c-6.1-9.5-14.6-15.8-25.6-18.5c-6.5-1.6-8.2-0.9-12,4.8c-11.7,17.4-23.4,34.9-35,52.4   c-0.7,1.1-1.3,2.3-2,3.5C394.5,86.4,405.5,94.1,412.4,108.6z M393.1,95.5c-16.3,23.3-32.3,46.2-48.3,69c-0.4,0.5-1,1-1,1.5   c0,1.3,0.2,2.5,0.4,3.8c1.2-0.2,2.7-0.2,3.7-0.8c1-0.6,1.5-1.9,2.2-2.9c11.1-15.8,22.1-31.6,33.2-47.4c4.7-6.7,9.3-13.3,14.1-20.1   C395.9,97.5,394.7,96.6,393.1,95.5L393.1,95.5z M337.2,172.6c-7.4,7-14.8,13.8-22.7,21.2c12.9-1.5,23.7-4.6,29.2-16.7   C341.6,175.6,339.6,174.2,337.2,172.6z M386.8,93.5c-4.4-3.2-11.7-3.1-14.2,0.1c-2.6,3.3-1,9,4.2,14.2   C380.2,103,383.5,98.2,386.8,93.5L386.8,93.5z M401.7,103.5c-3.4,4.8-6.7,9.5-10,14.3c5.7,2.6,11.4,2.2,13.6-0.8   C407.6,114,406.4,108.9,401.7,103.5L401.7,103.5z"></path>		<path class="st2" d="M337.6,250.5c-0.9,1.4-1.9,4.8-3.9,5.5c-2.8,1-6.7,0.8-9.4-0.5c-1.6-0.8-2.6-4.7-2.3-7   c1-7.1,2.7-14.2,4.5-21.2c0.5-1.8,2.5-3.1,3.8-4.6c1.2,1.6,3.2,3,3.6,4.7C335.3,234.5,336.2,241.7,337.6,250.5L337.6,250.5z"></path>		<path class="st2" d="M42.3,253.7c3.7,0,7.4-0.1,11.1,0.1c1,0.1,2,1.3,3,2c-0.9,0.6-1.8,1.7-2.8,1.7c-7.5,0.1-15.1,0.2-22.6,0   c-1,0-2-1.3-3-2c1.1-0.6,2.1-1.6,3.3-1.7C34.9,253.5,38.6,253.7,42.3,253.7L42.3,253.7z"></path>	</g></g></svg>